PathFileType	4	(X/Y/Z)	Patient4_TMGait_0pt6_02_right_11.trc.trc
DataRate	CameraRate	NumFrames	NumMarkers	Units	OrigDataRate	OrigDataStartFrame	OrigNumFrames
82.840236686391	82.840236686391	4	33	mm	82.840236686391	89	       141
Frame#	Time	Sacral			L.Shoulder			Chest			R.Shoulder			Neck			R.ASIS			L.ASIS			R.Thigh.Superior			R.Thigh.Lateral			R.Thigh.Inferior			R.Patella			L.Thigh.Superior			L.Thigh.Lateral			L.Thigh.Inferior			L.Patella			L.Shank.Superior			L.Shank.Lateral			L.Shank.Inferior			R.Shank.Superior			R.Shank.Lateral			R.Shank.Inferior			R.Heel			R.Midfoot.Superior			R.Midfoot.Lateral			R.Toe			L.Heel			L.Midfoot.Lateral			L.Midfoot.Superior			L.Toe			L.Elbow			L.Wrist			R.Elbow			R.Wrist			
		X1	Y1	Z1	X2	Y2	Z2	X3	Y3	Z3	X4	Y4	Z4	X5	Y5	Z5	X6	Y6	Z6	X7	Y7	Z7	X8	Y8	Z8	X9	Y9	Z9	X10	Y10	Z10	X11	Y11	Z11	X12	Y12	Z12	X13	Y13	Z13	X14	Y14	Z14	X15	Y15	Z15	X16	Y16	Z16	X17	Y17	Z17	X18	Y18	Z18	X19	Y19	Z19	X20	Y20	Z20	X21	Y21	Z21	X22	Y22	Z22	X23	Y23	Z23	X24	Y24	Z24	X25	Y25	Z25	X26	Y26	Z26	X27	Y27	Z27	X28	Y28	Z28	X29	Y29	Z29	X30	Y30	Z30	X31	Y31	Z31	X32	Y32	Z32	X33	Y33	Z33	

89	13.992285714286	698.722705160581	999.278377051628	463.206788351207	848.070373205354	1416.893664158005	256.734636833270	969.213273801206	1356.932288957341	408.650352623279	902.414834576569	1440.301248243109	585.222779773049	859.629737130859	1484.910061084534	404.018396803855	927.748748432216	929.400597331179	569.170505537313	904.988453560713	955.299598068051	295.263634113930	945.426667537891	716.955394871919	536.983730656282	854.263495345513	612.239664016257	594.626392097941	926.158191529579	551.379156092195	515.314514503821	910.046898885896	444.997371797320	527.178548542368	980.753023897240	765.180383292276	330.127791280969	916.353682036282	637.762909800507	264.083441078137	1010.905738712282	572.454552842546	330.112413878796	1022.440007822211	500.993775621371	335.983624286153	999.187981502493	426.150078846038	324.379905767329	918.306913510219	307.348417914297	269.882794136497	978.868008413654	198.337023965446	336.415456955691	836.162226293727	377.147948478795	529.118005178641	720.658046827306	323.081565059852	586.762675638389	711.437296633841	219.245180527241	527.487436367234	513.864721551938	126.244222424899	495.919629488161	689.598148905707	107.602213906074	536.153121393373	584.640144419151	84.881886980511	569.991526527696	776.558714129268	34.593922908162	565.217306800860	860.738323226618	38.128481394688	373.639018962880	933.282885008089	35.429493073913	291.705925890581	1015.133706655474	98.083310387578	317.174126432091	1143.849592401412	49.513579292175	286.766291293577	760.772788775865	1068.528864950116	162.742440661685	850.009117704477	821.672745682408	140.831556184112	929.269357197897	1096.323119428710	714.760930549581	1119.499594108705	963.993453387779	605.339046463843	
90	14.004357142857	698.797091714778	1000.489278827810	460.989101799657	849.761828184349	1418.333078067189	255.295081380696	970.032599751204	1358.093071853451	407.703488225648	902.516129272114	1441.437062589033	583.996909646012	860.651854514349	1486.118636042355	402.654122123897	927.537951542871	930.385895482816	567.538830742499	905.571177512121	956.708874939519	293.618205798900	950.343468372153	719.494464247126	535.976329228790	862.547132996956	612.969937095391	594.252563070153	936.890418272010	553.214423606804	515.714051077399	922.347484523385	445.338363715421	529.022469872411	979.852882711343	764.666007143969	327.878123362385	913.493943990217	637.851551009114	263.079479825766	1007.185948383584	571.639175569528	329.238673306823	1017.867387569863	500.353150892122	335.703687240489	994.262205122189	425.633781978127	324.042664207846	912.895640820454	307.235870793018	269.552775127653	972.398709654290	198.017086729898	336.543333009019	846.269253793328	378.405656261239	530.542924596119	728.153093293936	328.863303263905	586.922512464586	716.403153591838	224.704901692576	528.749794501530	516.278402153218	141.885993603017	495.598833314659	689.509838131041	110.527630442114	536.968392109389	583.083747706003	95.055527751013	569.723132643594	769.475426332845	33.509083641107	565.455010198107	853.430237928683	38.044106757459	373.636157351296	925.982833965565	35.382694856400	291.727218613351	1007.854007970400	97.989212164595	317.317612400466	1136.593954818975	49.379698792541	286.799598234371	764.454060574812	1069.902514831468	159.442946840986	856.956390768554	824.309750275069	137.263023618346	922.494754308951	1097.229297457416	714.052878628789	1108.711089221204	954.457816362352	609.854156017818	
91	14.016428571429	698.745694765050	1001.525857194301	458.697023824877	851.515353503179	1419.748602239596	254.038862495573	970.801771277695	1359.135056989638	406.980738118285	902.448236501736	1442.288188107792	583.013254560177	861.593665333244	1487.209517522872	401.539022306100	927.265159556855	931.227404872223	565.854076560719	906.113761299336	957.944231731680	291.988719268080	955.507403762415	722.232570036361	535.075430985710	871.302963205067	613.917425721118	594.103671491529	948.100108386601	555.433792266158	516.318840559547	935.221240422283	446.209044864830	530.864632196014	978.730732720670	763.978734675002	325.842296215105	910.718591611862	637.953059724468	261.880396811766	1003.340326772943	570.799594092085	328.373484710231	1013.135177624836	499.651581699232	335.245288775383	989.200124697981	425.062126709651	323.530272141837	907.383618038302	307.029393140083	269.059243650634	965.866325797324	197.652597427629	336.561992661222	857.189037864808	380.046418597578	532.025351983293	736.676754886955	335.011055835653	587.240168031724	722.396785166056	230.635850025382	530.147350563495	520.373883429291	158.502910757634	495.414273958640	690.190481092718	114.027038630971	537.810774152162	582.681569505828	106.202132498334	569.528402219420	762.627710057844	32.203917672142	565.735377475889	846.075138517405	37.954626663009	373.618516107368	918.631943058766	35.295606872656	291.726794948538	1000.555212616693	97.837666855148	317.426279788681	1129.313580013435	49.106617628965	286.820239036716	767.828244011570	1071.457596397229	156.023562303182	863.974946357780	827.303701688631	133.792438267904	915.661962599076	1097.867349794219	713.278026619500	1097.491109940311	944.721779379606	615.046994360795	
92	14.028500000000	698.557005207811	1002.370769961434	456.363990589016	853.316558106069	1421.107526573791	252.977197500073	971.522434954294	1360.018930485505	406.483218310479	902.236912773659	1442.833678510479	582.274863993905	862.470665361190	1488.164865690595	400.680214328343	926.923907864534	931.930370462657	564.135797566671	906.606067833543	958.983674420130	290.377863784751	960.799161044649	725.184306617644	534.265940818674	880.361524213335	615.133879143265	594.133907767221	959.564923460802	558.098915021993	517.047996150056	948.479894877572	447.661259453496	532.589122580245	977.451714728699	763.188310896379	324.019524034946	908.068134783251	638.068294103362	260.510473696346	999.462481377437	569.956300891442	327.472572934374	1008.352506251785	498.912306135120	334.604342567295	984.104188041091	424.448050590272	322.855224761541	901.851871279855	306.758391918226	268.410664174399	959.329693937022	197.256367415151	336.471913902539	868.731975773799	382.110486015522	533.455179016227	746.110951780552	341.449888224882	587.693811760569	729.325559749939	236.974798375188	531.623960833973	526.104049016251	175.721114295746	495.436051695858	691.708972165247	118.143585854721	538.671378634931	583.546265286618	118.099106545677	569.445179538532	756.267554994626	30.752732313630	566.010401273724	838.705809607348	37.870801711924	373.580882883592	911.263385843300	35.186145055796	291.700975043884	993.261581363554	97.654270018574	317.496265076821	1122.031926939708	48.742434996448	286.823121844433	770.919430103802	1073.141424376213	152.522238386471	871.034941223761	830.603172696953	130.433850067548	908.804344071796	1098.194072929951	712.456068407615	1085.798422703504	934.795646767629	620.913558575843	
